<?xml version="1.0" encoding="UTF-8" standalone="no"?>
<svg
   xmlns:dc="http://purl.org/dc/elements/1.1/"
   xmlns:cc="http://creativecommons.org/ns#"
   xmlns:rdf="http://www.w3.org/1999/02/22-rdf-syntax-ns#"
   xmlns:svg="http://www.w3.org/2000/svg"
   xmlns="http://www.w3.org/2000/svg"
   xmlns:sodipodi="http://sodipodi.sourceforge.net/DTD/sodipodi-0.dtd"
   xmlns:inkscape="http://www.inkscape.org/namespaces/inkscape"
   width="225mm"
   height="125mm"
   viewBox="0 0 225 125"
   version="1.1"
   id="svg8"
   inkscape:version="1.0.1 (c497b03c, 2020-09-10)"
   sodipodi:docname="cleo2.svg">
  <defs
     id="defs2">
    <clipPath
       clipPathUnits="userSpaceOnUse"
       id="clipPath4644">
      <path
         d="M 0,246.223 H 544.625 V 0 H 0 Z"
         id="path4642" />
    </clipPath>
  </defs>
  <sodipodi:namedview
     id="base"
     pagecolor="#ffffff"
     bordercolor="#666666"
     borderopacity="1.0"
     inkscape:pageopacity="0.0"
     inkscape:pageshadow="2"
     inkscape:zoom="0.35"
     inkscape:cx="400"
     inkscape:cy="560"
     inkscape:document-units="mm"
     inkscape:current-layer="layer1"
     inkscape:document-rotation="0"
     showgrid="false"
     inkscape:window-width="1251"
     inkscape:window-height="1020"
     inkscape:window-x="470"
     inkscape:window-y="265"
     inkscape:window-maximized="0" />
  <metadata
     id="metadata5">
    <rdf:RDF>
      <cc:Work
         rdf:about="">
        <dc:format>image/svg+xml</dc:format>
        <dc:type
           rdf:resource="http://purl.org/dc/dcmitype/StillImage" />
        <dc:title></dc:title>
      </cc:Work>
    </rdf:RDF>
  </metadata>
  <g
     inkscape:label="Capa 1"
     inkscape:groupmode="layer"
     id="layer1">
    <path
       id="path4648"
       style="fill:#000000;fill-opacity:1;fill-rule:nonzero;stroke:none;stroke-width:0.390643"
       d="M 43.634145,16.332835 C 39.277804,16.307305 34.820618,16.932259 30.500052,18.31223 15.508041,23.1011 5.7679653,36.475591 5.6788054,52.320124 5.5861074,68.515882 15.204484,81.914226 30.686292,86.875982 c 14.292472,4.574411 31.555316,0.896624 40.202757,-9.028458 -1.294605,-1.371851 -2.591104,-2.743678 -3.956405,-4.187412 -0.91989,0.986446 -1.689688,1.855452 -2.505883,2.683774 C 50.712854,90.311101 27.734286,86.84417 19.50712,69.294812 13.993671,57.535936 15.187991,45.748321 21.871531,34.785517 31.989146,18.200069 53.219538,16.108407 66.752372,30.060872 c 0.247846,0.255258 0.546863,0.464796 0.810024,0.685862 1.269072,-1.155452 2.403428,-2.193231 3.523637,-3.215024 C 65.240514,20.71165 54.767019,16.398018 43.634145,16.332835 Z m 60.990005,0.860758 v 3.337997 8.456006 17.497609 2.849105 3.315912 8.918029 3.342167 h 28.00523 0.13491 V 61.568251 H 111.52338 V 52.650222 49.33431 47.547126 46.485205 41.31048 h 13.93636 v -0.657816 -1.654669 h -9.04279 -4.89357 v -8.550321 -1.39262 -8.523464 h 21.24091 v -1.747795 -1.590202 z m 76.86337,6.12e-4 c -11.56265,0 -18.52228,3.115995 -26.23058,9.454661 -7.70635,6.337118 -11.56061,14.719647 -11.56061,25.151352 0,10.721154 3.85424,19.397382 11.3469,25.831241 7.60187,6.533708 14.77242,9.74954 26.54756,9.74954 12.20445,0 19.37767,-3.215832 26.87465,-9.74954 7.38231,-6.433859 11.13023,-14.915034 11.13023,-25.445028 0,-10.818288 -3.85527,-19.397232 -11.66805,-25.63605 -7.70633,-6.239996 -14.87903,-9.356176 -26.4401,-9.356176 z M 80.46369,17.977951 v 69.403036 h 3.015059 4.54497 43.885181 1.32874 0.0818 c 0.0104,0.0012 0.0174,0 0.0281,0 h 1.83673 V 83.212069 H 90.687787 c -0.131581,-0.0069 -0.255741,-0.01548 -0.396359,-0.02449 v -65.20964 z m 66.12593,1.106694 c -1.42874,0.01871 -2.8545,0.150997 -4.27696,0.420243 -2.18385,0.411822 -4.24431,1.157819 -6.08801,2.411559 -1.41205,0.963136 -2.56939,2.171619 -3.52424,3.57378 -0.59074,0.86368 -1.13822,1.751618 -1.50782,2.736898 -0.85352,2.253008 -0.7756,4.429963 0.6011,6.487953 0.0385,0.06134 0.0849,0.127756 0.14028,0.202353 0.0267,-0.02645 0.0479,-0.04736 0.062,-0.0722 1.10253,-2.14773 2.67131,-3.922382 4.49184,-5.504822 1.23765,-1.075413 2.57005,-2.029966 3.96834,-2.892087 1.37631,-0.85124 2.80925,-1.596567 4.28531,-2.268314 0.0213,-0.0069 0.0453,-0.0179 0.0705,-0.02564 0.008,0.0081 0.0181,0.02195 0.0221,0.0305 -0.0645,0.0365 -0.13133,0.07416 -0.1922,0.111006 -2.60336,1.468985 -5.03577,3.171476 -7.17681,5.254705 -1.35863,1.319801 -2.56721,2.758938 -3.46275,4.429166 -0.33465,0.629793 -0.58726,1.298005 -0.88105,1.94956 -0.0515,0.119265 -0.0225,0.192812 0.0788,0.275171 1.01888,0.772773 2.16019,1.257622 3.42455,1.442175 1.94897,0.280115 3.80514,-0.02299 5.55616,-0.919265 0.75256,-0.38425 1.35472,-0.950025 1.9376,-1.553793 0.78871,-0.815882 1.45886,-1.712633 1.92509,-2.739878 0.43363,-0.95497 0.8139,-1.932949 1.16937,-2.921335 0.5766,-1.589429 1.11311,-3.199234 1.82837,-4.745542 0.73253,-1.59175 1.59993,-3.119091 2.5811,-4.577206 0.14454,-0.213292 0.28506,-0.422668 0.4465,-0.654223 -0.41007,-0.06492 -0.79979,-0.138117 -1.1855,-0.18863 -1.43305,-0.185512 -2.86492,-0.28074 -4.29366,-0.26205 z m 34.8979,0.641702 c 9.096,0 14.77273,2.730267 19.58743,8.384377 4.81901,5.55619 5.88924,13.647883 5.88924,24.174781 0,10.823324 -1.17708,18.912153 -5.9961,24.373554 -4.81547,5.455568 -10.16981,8.185004 -18.62519,8.185004 -9.52883,0 -14.13265,-2.729436 -18.94931,-8.185004 -4.71257,-5.461401 -7.06577,-13.550241 -7.06577,-24.472651 0,-10.721142 2.3532,-18.811219 7.06577,-24.270287 4.81666,-5.459449 9.20689,-8.189774 18.09393,-8.189774 z M 52.479945,96.091881 v 3.747484 c -0.391389,-0.20132 -0.76497,-0.34822 -1.119827,-0.44113 -0.354858,-0.0981 -0.761476,-0.14743 -1.220706,-0.14743 -0.506197,0 -0.997125,0.10326 -1.472013,0.3098 -0.469662,0.20647 -0.881966,0.506055 -1.236824,0.898375 -0.360077,0.40262 -0.646805,0.89008 -0.860763,1.46305 -0.208739,0.57298 -0.313385,1.22611 -0.313385,1.95911 0,1.40919 0.305713,2.51141 0.916278,3.30634 0.615782,0.79494 1.445464,1.19206 2.489168,1.19206 0.537504,0 1.035468,-0.10015 1.494696,-0.30144 0.459232,-0.20131 0.900679,-0.48272 1.323376,-0.84405 v 0.90553 h 1.471416 V 96.091881 Z m 25.489204,0 v 3.747484 c -0.391386,-0.20132 -0.764371,-0.34822 -1.11923,-0.44113 -0.354859,-0.0981 -0.762072,-0.14743 -1.221304,-0.14743 -0.506197,0 -0.996529,0.10326 -1.471414,0.3098 -0.469665,0.20647 -0.881965,0.506055 -1.236826,0.898375 -0.360078,0.40262 -0.646802,0.89008 -0.860761,1.46305 -0.208741,0.57298 -0.313384,1.22611 -0.313384,1.95911 0,1.40919 0.305114,2.51141 0.915678,3.30634 0.615785,0.79494 1.446063,1.19206 2.489764,1.19206 0.537508,0 1.035465,-0.10015 1.494697,-0.30144 0.459229,-0.20131 0.900086,-0.48272 1.32278,-0.84405 v 0.90553 h 1.472013 V 96.091881 Z m -57.50934,0.309802 c -0.855837,0 -1.635438,0.131314 -2.339937,0.394565 -0.699281,0.263262 -1.296802,0.645386 -1.79256,1.146094 -0.511414,0.516187 -0.903381,1.148543 -1.174744,1.897023 -0.271363,0.748475 -0.406504,1.597875 -0.406504,2.547675 0,1.0014 0.140821,1.88138 0.422621,2.64018 0.2818,0.75364 0.673169,1.3756 1.174147,1.86598 0.511415,0.5007 1.111476,0.86985 1.800319,1.1073 0.694063,0.23228 1.463499,0.3486 2.308898,0.3486 0.448792,0 0.85855,-0.0364 1.229065,-0.10869 0.375732,-0.0671 0.722703,-0.14965 1.041033,-0.24773 0.375733,-0.11872 0.678305,-0.23244 0.907919,-0.34084 0.234834,-0.10835 0.496145,-0.22472 0.783163,-0.3486 v -1.79615 h -0.10984 c -0.568817,0.50587 -1.179044,0.88541 -1.831359,1.13833 -0.652314,0.25294 -1.351937,0.37905 -2.098183,0.37905 -0.542726,0 -1.059072,-0.0903 -1.549612,-0.271 -0.485322,-0.18583 -0.910926,-0.46923 -1.276221,-0.85122 -0.349641,-0.36649 -0.636367,-0.84156 -0.860764,-1.42484 -0.219177,-0.5833 -0.328904,-1.28001 -0.328904,-2.09043 0,-0.77429 0.09896,-1.45601 0.297268,-2.04446 0.203521,-0.593625 0.485762,-1.083675 0.84584,-1.470825 0.370514,-0.397468 0.790438,-0.689262 1.260103,-0.875097 0.474886,-0.190987 1.007077,-0.286515 1.59677,-0.286515 0.720154,0 1.395709,0.121518 2.02715,0.364116 0.63144,0.242609 1.268276,0.629346 1.910152,1.161016 h 0.117595 v -1.819421 c -0.761904,-0.37681 -1.455845,-0.640027 -2.082067,-0.78973 -0.621004,-0.149691 -1.245131,-0.224439 -1.871353,-0.224439 z m 20.646368,0.131325 v 1.510211 h 1.659447 v -1.510211 z m 92.452013,0 v 1.510211 h 1.65945 v -1.510211 z m -12.19632,0.07762 V 108.1396 h 4.13308 c 0.80888,0 1.47427,-0.0722 1.99612,-0.21668 0.52707,-0.14454 1.00979,-0.38696 1.44813,-0.72765 0.37051,-0.28391 0.66546,-0.64525 0.88465,-1.08401 0.21917,-0.43876 0.3283,-0.94441 0.3283,-1.51738 0,-0.80009 -0.22648,-1.46103 -0.68049,-1.98238 -0.45402,-0.52651 -1.07501,-0.86967 -1.86299,-1.02969 v -0.062 c 0.46966,-0.23229 0.84518,-0.53967 1.12699,-0.92166 0.28179,-0.38714 0.42262,-0.853815 0.42262,-1.400975 0,-0.48522 -0.0965,-0.901129 -0.28952,-1.246971 -0.19308,-0.351017 -0.50387,-0.637612 -0.93179,-0.859568 -0.38617,-0.196162 -0.79026,-0.324865 -1.21295,-0.386814 -0.4227,-0.06191 -1.05953,-0.0931 -1.91016,-0.0931 z m 62.86851,0.395165 v 2.484982 h -0.99388 v 1.223705 h 0.99388 v 4.59929 c 0,1.04786 0.23216,1.80893 0.69661,2.28382 0.46444,0.4749 1.14314,0.71273 2.0355,0.71273 0.25571,0 0.54499,-0.0233 0.86852,-0.0699 0.32877,-0.0464 0.63194,-0.10558 0.90852,-0.17789 v -1.30904 h -0.0788 c -0.11482,0.0464 -0.30258,0.10615 -0.5635,0.17847 -0.26093,0.0671 -0.51148,0.10027 -0.75153,0.10027 -0.41227,0 -0.71992,-0.0462 -0.92344,-0.13908 -0.1983,-0.0981 -0.35497,-0.25017 -0.46977,-0.45665 -0.12526,-0.22197 -0.19821,-0.4598 -0.21908,-0.71273 -0.0209,-0.25809 -0.0311,-0.61425 -0.0311,-1.0685 v -3.94087 h 3.03715 v -1.223705 h -3.03715 v -2.484991 z m -61.3189,0.913281 h 1.84747 c 0.51664,0 0.94986,0.01814 1.29951,0.05429 0.34964,0.03096 0.64713,0.116112 0.89239,0.255489 0.20874,0.118722 0.36033,0.273412 0.45426,0.464402 0.0939,0.19099 0.14088,0.42622 0.14088,0.70496 0,0.33554 -0.0527,0.627325 -0.15699,0.875105 -0.0991,0.2426 -0.27107,0.44088 -0.51635,0.59572 -0.24527,0.15486 -0.51166,0.25818 -0.79868,0.30981 -0.28701,0.0464 -0.6733,0.0699 -1.15862,0.0699 h -2.00387 z m -34.397091,1.331751 c -1.236785,0 -2.219998,0.4107 -2.950591,1.231445 -0.725371,0.81559 -1.088188,1.92761 -1.088188,3.3368 0,1.4092 0.362817,2.52182 1.088188,3.3374 0.730593,0.81558 1.713806,1.22309 2.950591,1.22309 1.226349,0 2.205075,-0.40751 2.935668,-1.22309 0.730591,-0.81558 1.095951,-1.9282 1.095951,-3.3374 0,-1.40919 -0.36536,-2.52121 -1.095951,-3.3368 -0.730593,-0.820745 -1.709319,-1.231445 -2.935668,-1.231445 z m 54.429221,0 c -1.27332,0 -2.30152,0.4159 -3.0843,1.246975 -0.77757,0.83106 -1.16579,1.95347 -1.16579,3.36783 0,1.42985 0.40661,2.53468 1.22071,3.31412 0.81409,0.77428 1.94693,1.16161 3.39769,1.16161 0.56881,0 1.11117,-0.0701 1.6278,-0.20952 0.51664,-0.13937 1.02281,-0.31225 1.51857,-0.51872 v -1.58722 h -0.0782 c -0.25571,0.22712 -0.68639,0.45976 -1.29173,0.6972 -0.60014,0.23228 -1.19766,0.348 -1.79257,0.348 -0.44879,0 -0.86109,-0.0618 -1.23681,-0.18563 -0.37052,-0.12389 -0.69148,-0.30976 -0.96284,-0.55753 -0.2818,-0.25293 -0.5032,-0.57531 -0.66498,-0.96761 -0.16177,-0.39746 -0.24294,-0.86214 -0.24294,-1.39382 h 6.44258 v -0.78973 c 0,-1.25433 -0.32096,-2.22206 -0.96284,-2.90343 -0.63665,-0.681375 -1.54496,-1.022525 -2.72435,-1.022525 z m 12.62193,0 c -0.51662,0 -1.01966,0.10592 -1.51021,0.31755 -0.49054,0.21164 -0.96562,0.506035 -1.42486,0.882865 v -0.960465 h -1.47141 v 8.648825 h 1.47141 v -6.45751 c 0.40183,-0.30455 0.82175,-0.55478 1.26011,-0.75093 0.43835,-0.19615 0.85828,-0.29428 1.2601,-0.29428 0.39139,0 0.70981,0.0545 0.95508,0.16296 0.24527,0.10327 0.43303,0.26312 0.5635,0.47993 0.12523,0.19615 0.2115,0.46975 0.25846,0.82077 0.047,0.34584 0.0705,0.71758 0.0705,1.11504 v 4.92402 h 1.47201 v -5.61346 c 0,-1.05819 -0.24802,-1.86862 -0.74377,-2.43127 -0.49576,-0.562645 -1.21631,-0.844045 -2.16086,-0.844045 z m 10.67179,0 c -1.27331,0 -2.30151,0.4159 -3.0843,1.246975 -0.77756,0.83106 -1.16638,1.95347 -1.16638,3.36783 0,1.42985 0.40721,2.53468 1.22129,3.31412 0.8141,0.77428 1.94635,1.16161 3.39709,1.16161 0.56882,0 1.11178,-0.0701 1.62841,-0.20952 0.51663,-0.13937 1.02282,-0.31225 1.51857,-0.51872 v -1.58722 h -0.0782 c -0.25571,0.22712 -0.68639,0.45976 -1.29174,0.6972 -0.60013,0.23228 -1.19765,0.348 -1.79256,0.348 -0.4488,0 -0.86109,-0.0618 -1.23683,-0.18563 -0.37051,-0.12389 -0.69147,-0.30976 -0.96283,-0.55753 -0.28181,-0.25293 -0.50381,-0.57531 -0.66557,-0.96761 -0.16178,-0.39746 -0.24236,-0.86214 -0.24236,-1.39382 h 6.44199 v -0.78973 c 0,-1.25433 -0.32094,-2.22206 -0.96283,-2.90343 -0.63665,-0.681375 -1.54438,-1.022525 -2.72376,-1.022525 z m -103.643124,0.0311 c -0.52707,0 -1.061804,0.0468 -1.604528,0.13968 -0.542722,0.0929 -0.957562,0.17805 -1.244583,0.25547 v 1.478595 h 0.0782 c 0.506196,-0.19099 0.996531,-0.3353 1.471414,-0.43337 0.474885,-0.10326 0.905575,-0.1552 1.291741,-0.1552 0.318331,0 0.623442,0.0208 0.915681,0.062 0.292235,0.0413 0.542786,0.12124 0.751525,0.23997 0.219178,0.12388 0.386605,0.29416 0.501416,0.51096 0.120025,0.21681 0.179674,0.49041 0.179674,0.82077 v 0.22504 c -0.855838,0.0413 -1.656965,0.10304 -2.403212,0.18564 -0.746249,0.0826 -1.385029,0.23988 -1.917316,0.47216 -0.527072,0.2323 -0.934288,0.55267 -1.221307,0.96046 -0.281801,0.40263 -0.42262,0.93166 -0.42262,1.58722 0,0.80009 0.274017,1.45783 0.821961,1.97403 0.547946,0.51618 1.215876,0.7742 2.003874,0.7742 0.427916,0 0.800901,-0.041 1.11923,-0.12356 0.31833,-0.0774 0.599971,-0.17557 0.845242,-0.29429 0.208741,-0.0929 0.423112,-0.21702 0.642288,-0.37188 0.224395,-0.16002 0.401397,-0.28353 0.53186,-0.37129 v 0.92106 h 1.464249 v -5.86895 c 0,-0.55748 -0.08625,-1.02475 -0.258466,-1.40157 -0.172213,-0.37683 -0.422758,-0.68361 -0.751527,-0.921065 -0.333981,-0.24261 -0.730437,-0.41288 -1.189666,-0.51097 -0.45401,-0.10326 -0.98934,-0.1552 -1.605127,-0.1552 z m 114.840204,0 c -0.55838,0 -1.06457,0.0722 -1.51857,0.21668 -0.44879,0.13937 -0.81923,0.33043 -1.11147,0.573055 -0.30267,0.24776 -0.52976,0.52917 -0.68109,0.84404 -0.14612,0.31488 -0.21907,0.65024 -0.21907,1.00641 0,0.56782 0.1592,1.04807 0.47754,1.44038 0.32355,0.38714 0.86904,0.68154 1.63617,0.88285 0.27658,0.0723 0.58169,0.13922 0.91567,0.20116 0.33921,0.0619 0.61323,0.11591 0.82197,0.16237 0.56359,0.12388 0.9448,0.27398 1.1431,0.44947 0.19831,0.17551 0.29727,0.43353 0.29727,0.77422 0,0.44392 -0.18268,0.76889 -0.54798,0.97537 -0.36529,0.20648 -0.87147,0.3098 -1.51857,0.3098 -0.52185,0 -1.06734,-0.10072 -1.63616,-0.30204 -0.56882,-0.20648 -1.08517,-0.48269 -1.54962,-0.82853 h -0.0782 v 1.63378 c 0.3653,0.18067 0.81631,0.34834 1.35382,0.50321 0.54272,0.14969 1.13771,0.22504 1.7848,0.22504 1.14286,0 2.04295,-0.25342 2.70048,-0.75929 0.66275,-0.50586 0.99447,-1.15321 0.99447,-1.94299 0,-0.62975 -0.18521,-1.13599 -0.55573,-1.51797 -0.37051,-0.37681 -0.89763,-0.64263 -1.58125,-0.79749 -0.2244,-0.0516 -0.50663,-0.10812 -0.84585,-0.17012 -0.33397,-0.0619 -0.63655,-0.1237 -0.90792,-0.18565 -0.49053,-0.11355 -0.84513,-0.26106 -1.06431,-0.44172 -0.22439,-0.18067 -0.33666,-0.44907 -0.33666,-0.80525 0,-0.40263 0.18522,-0.70422 0.55574,-0.90553 0.37051,-0.20648 0.82467,-0.3098 1.36217,-0.3098 0.51664,0 1.04374,0.0955 1.58125,0.28652 0.53751,0.18583 0.99361,0.41527 1.36935,0.68885 h 0.0788 v -1.556185 c -0.35485,-0.18067 -0.80138,-0.33276 -1.33889,-0.45664 -0.53229,-0.12905 -1.0594,-0.194 -1.58125,-0.194 z m 18.18764,0 c -0.52707,0 -1.06239,0.0468 -1.60512,0.13968 -0.54272,0.0929 -0.95757,0.17805 -1.24458,0.25547 v 1.478595 h 0.0782 c 0.50619,-0.19099 0.99712,-0.3353 1.47201,-0.43337 0.47488,-0.10326 0.90556,-0.1552 1.29173,-0.1552 0.31834,0 0.62345,0.0208 0.91568,0.062 0.29224,0.0413 0.54279,0.12124 0.75153,0.23997 0.21918,0.12388 0.38601,0.29416 0.50082,0.51096 0.12002,0.21681 0.18026,0.49041 0.18026,0.82077 v 0.22504 c -0.85583,0.0413 -1.65695,0.10304 -2.4032,0.18564 -0.74624,0.0826 -1.38562,0.23988 -1.91791,0.47216 -0.52707,0.2323 -0.9343,0.55267 -1.22131,0.96046 -0.2818,0.40263 -0.42262,0.93166 -0.42262,1.58722 0,0.80009 0.27402,1.45783 0.82196,1.97403 0.54795,0.51618 1.21587,0.7742 2.00387,0.7742 0.42792,0 0.8009,-0.041 1.11924,-0.12356 0.31833,-0.0774 0.60057,-0.17557 0.84583,-0.29429 0.20874,-0.0929 0.42252,-0.21702 0.64169,-0.37188 0.22441,-0.16002 0.40199,-0.28353 0.53245,-0.37129 v 0.92106 h 1.46366 v -5.86895 c 0,-0.55748 -0.0863,-1.02475 -0.25847,-1.40157 -0.1722,-0.37683 -0.42276,-0.68361 -0.75151,-0.921065 -0.33399,-0.24261 -0.73044,-0.41288 -1.18967,-0.51097 -0.45402,-0.10326 -0.98876,-0.1552 -1.60454,-0.1552 z m -165.946946,0.20892 v 5.614065 c 0,1.07368 0.255632,1.88931 0.767047,2.44679 0.511414,0.55232 1.226881,0.82793 2.14534,0.82793 0.547944,0 1.048444,-0.10269 1.502456,-0.3092 0.454011,-0.20648 0.929095,-0.50347 1.424854,-0.89061 v 0.95984 h 1.471415 v -8.648815 h -1.471415 v 6.457515 c -0.391388,0.30456 -0.813853,0.55538 -1.267865,0.75153 -0.448791,0.19615 -0.863633,0.29428 -1.244582,0.29428 -0.42792,0 -0.754559,-0.052 -0.978955,-0.1552 -0.224395,-0.10327 -0.407075,-0.26832 -0.547975,-0.49544 -0.135681,-0.22196 -0.223883,-0.48779 -0.26563,-0.7975 -0.04175,-0.31487 -0.06268,-0.69181 -0.06268,-1.13057 v -4.924615 z m 11.52479,0 v 8.648815 h 1.471414 v -8.648815 z m 61.808376,0 3.48304,8.230975 -1.6278,3.6078 h 1.57289 l 5.10369,-11.838775 h -1.54184 l -2.70826,6.411555 -2.68495,-6.411555 z m 30.64423,0 v 8.648815 h 1.47142 v -8.648815 z m 71.72387,0 v 8.648815 h 1.47201 v -6.13994 c 0.39139,-0.31488 0.79801,-0.5703 1.22071,-0.76645 0.4227,-0.20131 0.86101,-0.30204 1.31502,-0.30204 0.2818,0 0.52473,0.0129 0.72825,0.0388 0.20873,0.0207 0.42251,0.0571 0.64169,0.10858 h 0.0782 v -1.494705 c -0.22961,-0.0361 -0.40151,-0.0595 -0.51633,-0.0699 -0.11482,-0.0155 -0.30002,-0.0233 -0.55574,-0.0233 -0.46444,0 -0.92114,0.0982 -1.36993,0.29429 -0.44358,0.19098 -0.95738,0.519155 -1.54185,0.983725 v -1.278015 z m -62.51095,0.960455 c 0.78278,0 1.36445,0.20925 1.74539,0.62737 0.38618,0.4181 0.58216,1.0089 0.58738,1.77286 h -5.00997 c 0.0626,-0.68137 0.32647,-1.25197 0.79092,-1.71137 0.46966,-0.45942 1.09828,-0.68886 1.88628,-0.68886 z m 23.29372,0 c 0.78277,0 1.36444,0.20925 1.7454,0.62737 0.38617,0.4181 0.58156,1.0089 0.58678,1.77286 h -5.00938 c 0.0626,-0.68137 0.32588,-1.25197 0.79033,-1.71137 0.46965,-0.45942 1.09887,-0.68886 1.88687,-0.68886 z m -77.644751,0.0543 c 0.787995,0 1.403898,0.2736 1.847476,0.82077 0.443571,0.54199 0.665571,1.37261 0.665571,2.49275 0,1.09431 -0.224536,1.92034 -0.67333,2.47783 -0.443575,0.55232 -1.056939,0.82852 -1.839717,0.82852 -0.793215,0 -1.411065,-0.2788 -1.85464,-0.83628 -0.44357,-0.56265 -0.665567,-1.38607 -0.665567,-2.47007 0,-1.12014 0.218857,-1.95076 0.657212,-2.49275 0.443574,-0.54717 1.064564,-0.82077 1.862995,-0.82077 z m -38.124867,0.077 c 0.370515,0 0.712404,0.0337 1.025514,0.10084 0.313112,0.0671 0.668303,0.18862 1.064909,0.36413 v 4.9628 c -0.370515,0.28907 -0.770106,0.52691 -1.198024,0.71273 -0.427917,0.18068 -0.850381,0.27101 -1.267865,0.27101 -0.782777,0 -1.351743,-0.26582 -1.706601,-0.7975 -0.354857,-0.53683 -0.532455,-1.31928 -0.532455,-2.3465 0,-1.0427 0.229618,-1.84793 0.68885,-2.41574 0.459228,-0.56781 1.101146,-0.85181 1.925672,-0.85181 z m 25.4898,0 c 0.370515,0 0.712405,0.0337 1.025514,0.10084 0.313112,0.0671 0.66771,0.18862 1.064313,0.36413 v 4.9628 c -0.370512,0.28907 -0.769507,0.52691 -1.197425,0.71273 -0.42792,0.18068 -0.850385,0.27101 -1.267865,0.27101 -0.78278,0 -1.351743,-0.26582 -1.706604,-0.7975 -0.354858,-0.53683 -0.532453,-1.31928 -0.532453,-2.3465 0,-1.0427 0.229618,-1.84793 0.688847,-2.41574 0.459228,-0.56781 1.101147,-0.85181 1.925673,-0.85181 z m 47.032158,1.9591 h 2.43485 c 0.51141,0 0.94464,0.0208 1.2995,0.062 0.36007,0.0362 0.66519,0.11867 0.91567,0.24772 0.37052,0.19099 0.62615,0.42303 0.76705,0.69661 0.1409,0.27358 0.21131,0.64272 0.21131,1.10729 0,0.40779 -0.0679,0.74116 -0.20355,0.99925 -0.13568,0.2581 -0.34946,0.48754 -0.64169,0.68885 -0.27658,0.18583 -0.63178,0.31513 -1.06491,0.3874 -0.43314,0.0671 -0.98881,0.10027 -1.66721,0.10027 h -2.05102 z m -57.976737,1.06073 v 2.40799 c -0.365297,0.27874 -0.761751,0.51917 -1.189668,0.72048 -0.427916,0.19615 -0.900458,0.29369 -1.417096,0.29369 -0.621001,0 -1.082787,-0.12352 -1.385457,-0.37129 -0.302675,-0.25294 -0.453662,-0.62727 -0.453662,-1.12281 0,-0.43877 0.130061,-0.78192 0.390985,-1.02969 0.260928,-0.25294 0.602817,-0.43881 1.025514,-0.55753 0.354861,-0.0981 0.835028,-0.17282 1.440375,-0.22444 0.610568,-0.0516 1.140215,-0.0906 1.589009,-0.1164 z m 133.027837,0 v 2.40799 c -0.36529,0.27874 -0.76234,0.51917 -1.19025,0.72048 -0.42791,0.19615 -0.89987,0.29369 -1.41651,0.29369 -0.621,0 -1.08278,-0.12352 -1.38546,-0.37129 -0.30266,-0.25294 -0.45425,-0.62727 -0.45425,-1.12281 0,-0.43877 0.13066,-0.78192 0.39158,-1.02969 0.26093,-0.25294 0.60282,-0.43881 1.02552,-0.55753 0.35485,-0.0981 0.83502,-0.17282 1.44037,-0.22444 0.61056,-0.0516 1.14022,-0.0906 1.589,-0.1164 z" />
  </g>
</svg>
