<?xml version="1.0" encoding="UTF-8" standalone="no"?>
<svg
   xmlns:dc="http://purl.org/dc/elements/1.1/"
   xmlns:cc="http://creativecommons.org/ns#"
   xmlns:rdf="http://www.w3.org/1999/02/22-rdf-syntax-ns#"
   xmlns:svg="http://www.w3.org/2000/svg"
   xmlns="http://www.w3.org/2000/svg"
   xmlns:sodipodi="http://sodipodi.sourceforge.net/DTD/sodipodi-0.dtd"
   xmlns:inkscape="http://www.inkscape.org/namespaces/inkscape"
   width="225mm"
   height="125mm"
   viewBox="0 0 225 125"
   version="1.1"
   id="svg8"
   inkscape:version="1.0.1 (c497b03c, 2020-09-10)"
   sodipodi:docname="cleo.pdf.svg">
  <defs
     id="defs2" />
  <sodipodi:namedview
     id="base"
     pagecolor="#ffffff"
     bordercolor="#666666"
     borderopacity="1.0"
     inkscape:pageopacity="0.0"
     inkscape:pageshadow="2"
     inkscape:zoom="0.35"
     inkscape:cx="400"
     inkscape:cy="560"
     inkscape:document-units="mm"
     inkscape:current-layer="layer1"
     inkscape:document-rotation="0"
     showgrid="false"
     inkscape:window-width="1251"
     inkscape:window-height="1174"
     inkscape:window-x="0"
     inkscape:window-y="23"
     inkscape:window-maximized="0" />
  <metadata
     id="metadata5">
    <rdf:RDF>
      <cc:Work
         rdf:about="">
        <dc:format>image/svg+xml</dc:format>
        <dc:type
           rdf:resource="http://purl.org/dc/dcmitype/StillImage" />
        <dc:title></dc:title>
      </cc:Work>
    </rdf:RDF>
  </metadata>
  <g
     inkscape:label="Capa 1"
     inkscape:groupmode="layer"
     id="layer1">
    <path
       style="fill:#000000;stroke-width:0.264583"
       d="m 102.88511,109.86393 c 0,-0.15309 0.34934,-0.40013 0.7763,-0.54897 0.87546,-0.30519 1.67552,-1.35947 1.66224,-2.19042 -0.005,-0.30478 -0.50972,-1.6257 -1.12189,-2.93539 -2.32641,-4.977202 -2.39381,-5.160202 -1.8974,-5.151702 0.31628,0.005 0.87132,0.96073 1.88309,3.241142 0.78905,1.77841 1.51149,3.32489 1.60543,3.43661 0.0939,0.11173 0.74496,-1.25749 1.44671,-3.0427 1.35409,-3.444722 1.52437,-3.757782 1.96148,-3.606352 0.29365,0.10174 -2.81156,8.230122 -3.68329,9.641632 -0.67749,1.09699 -2.63267,1.95562 -2.63267,1.15615 z m -85.433736,-2.93267 c -4.191141,-0.77219 -5.97829,-6.15388 -3.123365,-9.405462 2.168515,-2.4698 6.47517,-2.59308 8.63621,-0.24722 0.470101,0.51031 0.56565,0.77894 0.352777,0.99182 -0.212874,0.21287 -0.54768,0.0362 -1.236136,-0.65225 -1.055897,-1.05589 -2.143467,-1.36501 -4.130704,-1.17406 -3.133456,0.30108 -5.078635,3.745202 -3.818711,6.761372 1.357577,3.24994 5.538264,4.145 7.975706,1.70756 0.672611,-0.67261 0.996384,-0.83941 1.211604,-0.62419 0.21522,0.21522 0.09317,0.50302 -0.456729,1.07699 -1.352807,1.41203 -3.25547,1.96251 -5.410652,1.56544 z m 12.673327,0.13426 c -1.991347,-0.68709 -2.38125,-1.54368 -2.38125,-5.23146 0,-2.316312 0.06906,-2.804292 0.396875,-2.804292 0.328893,0 0.396875,0.50203 0.396875,2.930772 0,2.88649 0.0117,2.94246 0.773398,3.70417 0.875742,0.87574 1.758667,0.98264 2.964752,0.35895 1.14654,-0.5929 1.553517,-1.79905 1.553517,-4.60414 0,-1.947832 0.07339,-2.389752 0.396875,-2.389752 0.335139,0 0.396875,0.61736 0.396875,3.968752 0,3.35139 -0.06174,3.96875 -0.396875,3.96875 -0.250579,0 -0.396875,-0.25249 -0.396875,-0.68497 v -0.68498 l -0.814052,0.68498 c -0.447725,0.37673 -0.953741,0.6866 -1.124479,0.68858 -0.170736,0.002 -0.548553,0.0549 -0.839594,0.11759 -0.291042,0.0627 -0.707761,0.0524 -0.926042,-0.023 z m 17.991667,-0.0259 c -0.906021,-0.16463 -2.298917,-1.2623 -2.778403,-2.18953 -0.519316,-1.00425 -0.504598,-2.73461 0.0329,-3.86729 1.128554,-2.378252 4.512524,-2.972682 6.402692,-1.124692 l 0.840729,0.821972 v -2.566982 c 0,-1.9359 0.08131,-2.53993 0.33073,-2.45692 0.247631,0.0824 0.34867,1.51723 0.402137,5.710592 0.06204,4.86574 0.01865,5.60051 -0.330729,5.60051 -0.273002,0 -0.402138,-0.26244 -0.402138,-0.81727 v -0.81727 l -0.801967,0.6748 c -0.679656,0.5719 -2.463551,1.30139 -2.902201,1.18681 -0.07276,-0.019 -0.429948,-0.0886 -0.79375,-0.15475 z m 2.348568,-1.01616 c 2.161638,-0.86492 2.741089,-3.64567 1.134393,-5.44388 -1.407265,-1.575002 -4.338129,-1.273472 -5.41977,0.55761 -0.977389,1.65458 -0.219387,4.17033 1.478997,4.90867 1.110674,0.48284 1.552472,0.47931 2.80638,-0.0224 z m 10.003187,0.82509 c -1.851903,-0.66049 -2.826755,-1.99271 -2.826755,-3.86304 0,-3.261132 3.268506,-5.242542 6.05999,-3.673642 0.596069,0.33501 1.08376,0.706242 1.08376,0.824972 0,0.11872 0.126547,0.21586 0.281215,0.21586 0.154667,0 0.243964,-0.26496 0.198437,-0.588792 -0.05509,-0.39182 0.07212,-0.61959 0.380243,-0.68086 0.424567,-0.0844 0.463021,0.23916 0.463021,3.896082 0,3.36864 -0.06165,3.98815 -0.396875,3.98815 -0.405624,0 -0.49966,-0.27239 -0.403299,-1.16823 0.04844,-0.45034 -0.03746,-0.42938 -0.771498,0.18827 -0.454306,0.38227 -1.268796,0.81802 -1.80998,0.96832 -1.180592,0.32788 -1.016813,0.33565 -2.258259,-0.1071 z m 3.020028,-0.98597 c 2.153611,-1.21039 2.299267,-4.33587 0.265653,-5.70039 -1.642759,-1.102262 -3.921215,-0.638362 -4.88595,0.99481 -0.966181,1.63561 -0.198061,4.15471 1.490702,4.88886 1.203064,0.523 1.950858,0.47921 3.129595,-0.18328 z m 9.944555,0.98903 c -2.024522,-0.72818 -2.946389,-2.14227 -2.771491,-4.25132 0.209256,-2.52335 1.983499,-4.011582 4.494852,-3.770272 1.020271,0.098 1.497037,0.31533 2.211721,1.00803 l 0.91108,0.883052 v -2.565442 c 0,-2.10402 0.07138,-2.56546 0.396875,-2.56546 0.340471,0 0.396875,0.80845 0.396875,5.688542 0,4.88009 -0.0564,5.68854 -0.396875,5.68854 -0.281702,0 -0.396875,-0.28582 -0.396875,-0.98491 0,-0.96794 -0.0071,-0.97476 -0.412936,-0.39536 -0.868005,1.23924 -2.895623,1.81763 -4.433226,1.26459 z m 3.252457,-1.15126 c 1.712386,-1.24903 1.970323,-3.56333 0.571619,-5.12875 -0.589311,-0.659552 -0.992603,-0.841362 -2.103048,-0.948062 -2.246072,-0.21582 -3.755266,1.119762 -3.753043,3.321312 0.0028,2.75394 3.083975,4.36058 5.284472,2.7555 z m 9.447543,1.14776 c -2.021747,-0.72018 -2.946492,-2.13752 -2.771491,-4.24782 0.209436,-2.52551 1.983224,-4.011612 4.499602,-3.769822 1.610377,0.15474 2.538237,0.80409 3.331467,2.331482 1.69187,3.25776 -1.5738,6.92786 -5.059578,5.68616 z m 2.719268,-0.80157 c 3.33668,-1.72547 2.27558,-6.487502 -1.444981,-6.484852 -1.934732,10e-4 -3.281447,1.351212 -3.296928,3.304562 -0.02035,2.56652 2.569694,4.30359 4.741909,3.18029 z m 52.133136,0.87468 c -1.94487,-0.54951 -3.02986,-2.21417 -2.85077,-4.37381 0.19228,-2.31867 1.75653,-3.782062 4.04139,-3.780812 1.96395,0.001 3.83333,1.773532 3.83547,3.636622 l 9.9e-4,0.8599 h -3.60056 -3.60055 l 0.18058,0.7276 c 0.55483,2.23545 3.6281,3.1302 5.55242,1.61653 0.73893,-0.58125 1.10742,-0.51897 0.85295,0.14416 -0.36138,0.94176 -2.86736,1.60621 -4.41192,1.16981 z m 4.23333,-5.00748 c 0,-0.30559 -0.40481,-0.96044 -0.89958,-1.45521 -0.73401,-0.734012 -1.10167,-0.899582 -1.99752,-0.899582 -0.60386,0 -1.44719,0.18061 -1.87406,0.40135 -0.7199,0.372282 -1.57884,1.586192 -1.57884,2.231342 0,0.17848 1.13458,0.27773 3.175,0.27773 3.04901,0 3.175,-0.022 3.175,-0.55563 z m 19.45564,5.00871 c -2.02299,-0.45358 -3.17707,-2.14122 -2.99182,-4.37504 0.19228,-2.31867 1.75653,-3.782062 4.04139,-3.780812 1.96395,0.001 3.83333,1.773532 3.83547,3.636622 l 9.9e-4,0.8599 h -3.60056 -3.60056 l 0.17042,0.7276 c 0.2331,0.9952 1.51694,2.11717 2.67019,2.33352 0.96346,0.18075 3.03759,-0.49159 3.03759,-0.98464 0,-0.12342 0.18733,-0.2244 0.41628,-0.2244 0.67213,0 0.32315,0.85266 -0.54943,1.34242 -1.06718,0.59899 -2.16689,0.74802 -3.42996,0.46483 z m 4.09228,-5.00871 c 0,-0.30559 -0.40481,-0.96044 -0.89958,-1.45521 -0.73401,-0.734012 -1.10167,-0.899582 -1.99752,-0.899582 -0.60386,0 -1.44719,0.18061 -1.87406,0.40135 -0.71991,0.372282 -1.57884,1.586192 -1.57884,2.231342 0,0.17848 1.13458,0.27773 3.175,0.27773 3.04901,0 3.175,-0.022 3.175,-0.55563 z m 6.48579,4.91928 c -1.22378,-0.43578 -1.87486,-1.14464 -1.44322,-1.57131 0.19808,-0.1958 0.35404,-0.15129 0.52389,0.14952 0.59032,1.04555 3.18965,1.29188 3.95107,0.37443 0.17066,-0.20563 0.27192,-0.7085 0.22502,-1.11748 -0.0763,-0.66583 -0.27652,-0.80562 -1.91388,-1.33653 -2.2078,-0.71589 -2.80434,-1.20547 -2.79317,-2.29235 0.0142,-1.380382 1.07129,-2.274932 2.68617,-2.273112 0.87334,0.001 2.59708,0.84652 2.59708,1.273942 0,0.5135 -0.37551,0.52831 -0.99716,0.0393 -1.33798,-1.052462 -3.50076,-0.441272 -3.50076,0.98929 0,0.73501 0.39375,1.00848 2.20928,1.53438 1.80553,0.523 2.55322,1.16392 2.55322,2.18862 0,1.05342 -0.65928,1.84872 -1.79374,2.16379 -1.18355,0.3287 -1.01092,0.33788 -2.3038,-0.12251 z m 19.6243,0.0155 c -2.02209,-0.72115 -2.94648,-2.1381 -2.77149,-4.24824 0.1955,-2.3575 1.75604,-3.835082 4.05041,-3.835082 1.01837,0 2.20364,0.504 2.75901,1.17318 0.50012,0.602612 0.80823,0.508402 0.80823,-0.24714 0,-0.41157 0.14993,-0.66146 0.39687,-0.66146 0.33514,0 0.39688,0.61736 0.39688,3.968752 0,3.35139 -0.0617,3.96875 -0.39688,3.96875 -0.26712,0 -0.39687,-0.26719 -0.39687,-0.81727 v -0.81727 l -0.80197,0.67481 c -0.44108,0.37115 -1.24475,0.79779 -1.78593,0.94809 -1.1806,0.32788 -1.01682,0.33565 -2.25826,-0.1071 z m 2.71927,-0.802 c 0.41649,-0.21538 0.99765,-0.69722 1.29148,-1.07076 1.74594,-2.2196 0.13632,-5.432032 -2.70945,-5.407442 -1.98118,0.0171 -3.33019,1.352482 -3.33157,3.297912 -0.002,2.57284 2.58047,4.30195 4.74954,3.18029 z m -157.946019,-3.048 c 0,-3.351392 0.06173,-3.968752 0.396875,-3.968752 0.33514,0 0.396875,0.61736 0.396875,3.968752 0,3.35139 -0.06173,3.96875 -0.396875,3.96875 -0.33514,0 -0.396875,-0.61736 -0.396875,-3.96875 z m 80.758789,-1.65364 0.0714,-5.622402 2.36594,-0.0772 c 2.60885,-0.0851 3.58453,0.18316 4.3899,1.20702 0.69995,0.88984 0.69457,2.67818 -0.0108,3.574852 l -0.53095,0.675 0.79554,0.79554 c 0.64074,0.64073 0.79555,1.01973 0.79555,1.94764 0,2.38489 -1.2162,3.12193 -5.1515,3.12193 h -2.79653 z m 6.57747,4.07173 c 0.72493,-0.89594 0.65562,-2.29192 -0.15399,-3.10153 -0.62132,-0.62132 -0.8008,-0.65499 -3.10885,-0.58328 l -2.44947,0.0761 -0.0772,2.20795 -0.0773,2.20795 2.68071,-0.0913 c 2.44116,-0.0831 2.72587,-0.14711 3.18611,-0.71591 z m -0.52954,-5.29169 c 0.72566,-0.896152 0.65621,-2.291682 -0.15438,-3.102272 -0.61281,-0.6128 -0.8168,-0.65464 -2.84427,-0.58329 l -2.18412,0.0769 -0.0791,1.82584 c -0.11533,2.660432 -0.16587,2.609582 2.48587,2.500682 2.00641,-0.0824 2.32906,-0.16583 2.77604,-0.71783 z m 6.59119,2.8736 c 0,-3.351392 0.0617,-3.968752 0.39687,-3.968752 0.33514,0 0.39688,0.61736 0.39688,3.968752 0,3.35139 -0.0617,3.96875 -0.39688,3.96875 -0.33514,0 -0.39687,-0.61736 -0.39687,-3.96875 z m 17.4625,0 c 0,-3.351392 0.0617,-3.968752 0.39687,-3.968752 0.22612,0 0.39688,0.2378 0.39688,0.55269 0,0.531862 0.0307,0.526882 0.81405,-0.13229 1.31811,-1.10912 3.43625,-0.88952 4.53788,0.47047 0.37669,0.465032 0.45817,1.134692 0.46302,3.805492 0.003,1.78263 -0.10033,3.24114 -0.23014,3.24114 -0.12982,0 -0.27921,-1.36022 -0.33199,-3.02272 -0.0877,-2.76408 -0.15073,-3.08104 -0.73613,-3.70417 -0.87476,-0.931132 -2.58538,-0.951552 -3.64204,-0.0435 -0.72224,0.62068 -0.74477,0.7211 -0.83127,3.70417 -0.0703,2.42426 -0.16724,3.06619 -0.46302,3.06619 -0.3058,0 -0.37411,-0.72471 -0.37411,-3.96875 z m 35.03075,3.76626 c -0.6835,-0.45638 -0.8995,-1.48369 -0.8995,-4.27803 v -2.927812 h -0.79375 c -0.43656,0 -0.79375,-0.11906 -0.79375,-0.26458 0,-0.14552 0.35034,-0.26459 0.77854,-0.26459 0.72426,0 0.7842,-0.077 0.85989,-1.10391 0.11168,-1.51528 0.68717,-1.63834 0.79294,-0.16956 0.082,1.13853 0.0848,1.14137 1.20665,1.22254 0.61846,0.0447 1.12448,0.18673 1.12448,0.31552 0,0.12878 -0.50602,0.27077 -1.12448,0.31551 l -1.12448,0.0814 -0.0747,2.964862 c -0.0731,2.90265 -0.0609,2.97389 0.58236,3.39538 0.38845,0.25452 0.87867,0.36018 1.19918,0.25846 0.38904,-0.12348 0.54212,-0.055 0.54212,0.24264 0,0.30354 -0.26595,0.41362 -0.99219,0.41065 -0.5457,-0.002 -1.12319,-0.0915 -1.28331,-0.19844 z m 19.738,-3.76626 c 0,-3.351392 0.0617,-3.968752 0.39687,-3.968752 0.2311,0 0.39688,0.24031 0.39688,0.57529 v 0.575292 l 0.59531,-0.555682 c 0.8214,-0.7667 2.05052,-1.06119 2.05052,-0.49129 0,0.25442 -0.22098,0.42556 -0.54952,0.42556 -0.30223,0 -0.89755,0.34803 -1.32291,0.773402 -0.76172,0.76171 -0.7734,0.81767 -0.7734,3.70416 0,2.42874 -0.068,2.93077 -0.39688,2.93077 -0.33514,0 -0.39687,-0.61736 -0.39687,-3.96875 z M 39.473973,96.498448 c -0.08752,-0.22807 -0.02929,-0.54449 0.129384,-0.70317 0.382016,-0.38201 1.130106,0.21453 0.928351,0.7403 -0.193548,0.50438 -0.858901,0.48102 -1.057735,-0.0371 z m 93.397907,0 c -0.24077,-0.62745 0.32354,-1.06997 0.82924,-0.65028 0.31337,0.26008 0.33984,0.42756 0.11111,0.70317 -0.39621,0.4774 -0.74437,0.45782 -0.94035,-0.0529 z M 37.003868,86.948918 C 22.07266,85.007888 10.387967,75.806948 5.9286953,62.479238 c -1.455907,-4.35137 -1.852403,-7.05808 -1.83543,-12.52968 0.01191,-3.83879 0.12428,-5.26327 0.579358,-7.34443 1.573469,-7.19576 4.446373,-12.80835 9.1047807,-17.78737 4.980022,-5.32276 11.815643,-9.07899 19.604739,-10.77294 3.686635,-0.80177 13.036481,-0.87116 16.7186,-0.12409 7.232975,1.46752 13.663636,4.62334 18.252104,8.95714 1.845849,1.74341 1.848995,1.71837 -0.47066,3.74377 l -1.489466,1.30052 -1.795989,-1.65344 c -11.989959,-11.03826 -28.382434,-11.20987 -39.341097,-0.41186 -4.497732,4.4318 -8.153215,11.19522 -9.965066,18.4375 -0.805947,3.22151 -0.991955,9.32844 -0.394925,12.96594 0.51141,3.11585 2.080316,8.087 3.340264,10.5838 2.732834,5.41556 7.205779,9.94536 12.35523,12.51226 7.285672,3.63177 16.498731,3.70121 24.010715,0.18097 3.196066,-1.49772 5.214641,-2.95711 8.382233,-6.06016 l 2.829176,-2.77154 1.971336,2.08655 c 1.567945,1.65959 1.921936,2.17964 1.729918,2.54146 -0.363985,0.68587 -3.811331,3.57689 -5.773902,4.84213 -3.747802,2.41615 -8.922409,4.42654 -13.639871,5.29924 -2.320666,0.4293 -11.018872,0.74405 -13.096875,0.47391 z m 42.509723,-1.3247 c -0.09701,-0.097 -0.17639,-16.05139 -0.17639,-35.45417 v -35.27778 h 5.026062 5.026061 l 0.0672,33.27136 0.0672,33.27135 22.555726,0.0676 22.55573,0.0676 v 2.11519 2.11518 h -27.47257 c -15.109906,0 -27.551941,-0.0794 -27.648953,-0.17639 z m 97.317009,-0.086 c -9.01361,-0.75513 -16.61579,-4.35003 -23.61892,-11.16885 -7.27974,-7.08814 -10.80423,-17.17048 -9.84294,-28.15719 0.98088,-11.21058 5.76777,-18.96913 15.91208,-25.79015 4.39357,-2.95423 8.541,-4.66338 13.85116,-5.70805 3.36679,-0.66235 12.95981,-0.66232 16.53646,4e-5 5.67021,1.05008 11.06073,3.43325 15.91041,7.03405 7.86147,5.83701 11.63768,11.48821 13.4994,20.20221 0.77831,3.64295 0.85331,11.55716 0.14293,15.08219 -1.68596,8.36612 -5.50091,14.59342 -12.38656,20.21913 -5.37554,4.39192 -10.78985,6.86059 -17.29532,7.88585 -3.08481,0.48617 -9.33622,0.68331 -12.7087,0.40077 z m 12.01591,-3.18289 c 6.88193,-1.65344 13.08597,-6.9868 15.61494,-13.42352 2.0591,-5.24083 3.0673,-15.5261 2.43126,-24.80304 -0.69174,-10.08948 -2.44555,-15.24458 -6.77785,-19.9226 -3.09969,-3.34704 -6.53479,-5.41984 -10.95496,-6.61044 -2.29349,-0.61776 -3.01159,-0.68376 -7.56125,-0.69493 -5.78426,-0.0142 -7.40129,0.2767 -10.84792,1.95157 -5.7521,2.7952 -10.92083,9.35714 -12.92813,16.41286 -1.3582,4.77409 -1.60848,7.031 -1.61374,14.55208 -0.005,7.76738 0.26318,10.05799 1.75303,14.94896 1.58526,5.20418 3.50728,8.41745 7.13689,11.93156 2.74514,2.65779 4.52604,3.84708 7.24213,4.83632 1.83707,0.66908 3.13432,0.94604 6.87649,1.46808 1.79375,0.25023 7.48707,-0.13226 9.62911,-0.6469 z m -85.16765,-43.9151 v -24.34167 h 14.2875 14.2875 v 1.71979 1.7198 h -10.71563 -10.71562 v 9.3927 9.39271 h 7.01146 7.01146 v 1.19063 1.19062 h -7.01146 -7.01146 v 10.31875 10.31875 h 10.71562 10.71563 v 1.71979 1.7198 h -14.2875 -14.2875 z m 30.82396,-3.86354 c -0.58209,-0.21267 -1.27021,-0.59805 -1.52916,-0.85641 -0.44143,-0.4404 -0.444,-0.53394 -0.0412,-1.49809 1.11585,-2.67062 4.61641,-6.52974 8.01899,-8.84039 1.98429,-1.34751 2.11039,-1.6205 0.23878,-0.51696 -4.519,2.6645 -6.92894,4.87122 -9.50724,8.70553 l -0.43853,0.65215 -0.54785,-1.19062 c -0.65681,-1.42743 -0.73786,-3.92578 -0.17876,-5.51042 0.9639,-2.73199 3.80364,-6.00032 6.41442,-7.38253 1.96915,-1.04252 3.82282,-1.58177 6.67197,-1.94094 2.2931,-0.28908 7.05376,-0.11733 7.69264,0.27752 0.25482,0.15749 0.12777,0.51474 -0.5156,1.44984 -1.11904,1.62648 -2.62355,4.89263 -3.84355,8.34403 -0.54011,1.52797 -1.3315,3.39666 -1.75865,4.15265 -1.05001,1.85834 -3.02221,3.58236 -4.72846,4.13342 -1.67026,0.53943 -4.50184,0.54953 -5.94785,0.0212 z"
       id="path2462" />
  </g>
</svg>
