<?xml version="1.0" encoding="UTF-8" standalone="no"?>
<svg
   xmlns:dc="http://purl.org/dc/elements/1.1/"
   xmlns:cc="http://creativecommons.org/ns#"
   xmlns:rdf="http://www.w3.org/1999/02/22-rdf-syntax-ns#"
   xmlns:svg="http://www.w3.org/2000/svg"
   xmlns="http://www.w3.org/2000/svg"
   xmlns:sodipodi="http://sodipodi.sourceforge.net/DTD/sodipodi-0.dtd"
   xmlns:inkscape="http://www.inkscape.org/namespaces/inkscape"
   version="1.1"
   id="svg4628"
   xml:space="preserve"
   width="726.16669"
   height="328.29733"
   viewBox="0 0 726.16669 328.29733"
   sodipodi:docname="logo.svg"
   inkscape:version="1.0.1 (c497b03c, 2020-09-10)"><metadata
     id="metadata4634"><rdf:RDF><cc:Work
         rdf:about=""><dc:format>image/svg+xml</dc:format><dc:type
           rdf:resource="http://purl.org/dc/dcmitype/StillImage" /><dc:title /></cc:Work></rdf:RDF></metadata><defs
     id="defs4632"><clipPath
       clipPathUnits="userSpaceOnUse"
       id="clipPath4644"><path
         d="M 0,246.223 H 544.625 V 0 H 0 Z"
         id="path4642" /></clipPath></defs><sodipodi:namedview
     pagecolor="#ffffff"
     bordercolor="#666666"
     borderopacity="1"
     objecttolerance="10"
     gridtolerance="10"
     guidetolerance="10"
     inkscape:pageopacity="0"
     inkscape:pageshadow="2"
     inkscape:window-width="1792"
     inkscape:window-height="788"
     id="namedview4630"
     showgrid="false"
     inkscape:zoom="0.51219393"
     inkscape:cx="47.628801"
     inkscape:cy="164.14867"
     inkscape:window-x="317"
     inkscape:window-y="295"
     inkscape:window-maximized="0"
     inkscape:current-layer="g4636"
     inkscape:document-rotation="0" /><g
     id="g4636"
     inkscape:groupmode="layer"
     inkscape:label="logo cleo bn"
     transform="matrix(1.3333333,0,0,-1.3333333,0,328.29733)"><path
       style="fill:#000000;stroke-width:0.117225"
       d="m 260.69017,17.194788 c 0,0.03916 0.8175,1.881975 1.81665,4.09518 l 1.81665,4.024 -3.92671,9.278785 c -2.15967,5.103332 -3.92669,9.300554 -3.92669,9.327139 0,0.02659 0.80444,0.04833 1.78765,0.04827 l 1.7877,-1.05e-4 2.97634,-7.121347 c 1.63697,-3.916749 3.01499,-7.164764 3.06226,-7.21782 0.0471,-0.05305 0.54014,0.975598 1.0953,2.285897 0.55516,1.310304 1.92271,4.545172 3.03898,7.18861 l 2.02963,4.806245 1.72355,0.03245 c 0.94796,0.01782 1.72355,-0.0035 1.72355,-0.04688 0,-0.06572 -10.91346,-25.434918 -11.37808,-26.4492 l -0.14762,-0.322372 h -1.73959 c -0.95677,0 -1.73957,0.032 -1.73957,0.07118 z M 95.11141,23.922619 c -2.058772,0.372328 -3.51807,1.410924 -4.335679,3.085724 -0.834987,1.710546 -0.810951,1.440575 -0.854918,9.604006 l -0.03956,7.355898 h 1.646837 1.646887 v -5.773355 c 0.005,-8.274983 0.113175,-9.154629 1.294395,-10.307965 0.653106,-0.637718 1.077961,-0.789858 2.458688,-0.880387 1.665216,-0.109209 3.57711,0.529857 5.50799,1.841062 l 0.70118,0.476193 v 7.322232 7.32222 h 1.64117 1.64113 v -9.788325 -9.788331 h -1.63672 -1.63677 l -0.0336,1.049812 -0.0335,1.049803 -0.9378,-0.646772 c -1.15864,-0.799065 -2.587437,-1.50957 -3.516768,-1.748779 -0.866986,-0.223163 -2.730106,-0.31489 -3.514515,-0.173036 z m 38.78141,0.003 c -3.78624,0.682712 -6.04807,3.991931 -6.33151,9.263348 -0.2936,5.460026 2.20609,9.685937 6.5253,11.031461 0.74085,0.230795 1.11897,0.272524 2.4031,0.265222 1.96057,-0.01111 2.47632,-0.131842 5.07001,-1.186427 0.11563,-0.04702 0.14653,0.833319 0.14653,4.173074 v 4.232662 h 1.64118 1.64118 V 38.048191 24.391421 h -1.63662 -1.63657 l -0.034,0.998584 -0.034,0.998573 -0.70333,-0.52893 c -0.89629,-0.674024 -2.60897,-1.533908 -3.51678,-1.76565 -0.8781,-0.224161 -2.73486,-0.312607 -3.53474,-0.168375 z m 3.85423,3.27098 c 0.97921,0.25044 2.25493,0.853379 3.28632,1.553203 l 0.67514,0.458116 -0.0306,5.643991 -0.0306,5.643984 -0.70333,0.273838 c -1.45023,0.56462 -2.03049,0.666662 -3.80988,0.670002 -1.49355,0.003 -1.77943,-0.02875 -2.35682,-0.26024 -1.77469,-0.711487 -2.90663,-2.061753 -3.46033,-4.12772 -0.40517,-1.51181 -0.39512,-4.631486 0.0201,-6.235457 0.39561,-1.528059 1.11586,-2.628069 2.09743,-3.20332 1.10525,-0.647718 2.77663,-0.809112 4.31214,-0.416397 z m 23.81034,-3.270929 c -2.28363,0.411859 -4.17835,2.053167 -4.85834,4.208513 -0.31348,0.993612 -0.34073,2.787115 -0.059,3.876894 0.64449,2.49241 3.00768,4.143358 6.79327,4.745721 1.27,0.202096 4.88422,0.527808 5.86713,0.528755 l 0.69102,10e-4 -0.0666,0.849885 c -0.19015,2.426999 -1.63242,3.38143 -5.10542,3.378555 -1.93648,-0.0015 -3.54316,-0.286882 -5.63784,-1.001032 -0.47868,-0.163226 -0.9139,-0.296772 -0.96709,-0.296772 -0.0532,0 -0.0967,0.739824 -0.0967,1.644068 v 1.644047 l 0.29364,0.111647 c 0.89438,0.340039 3.61818,0.727517 5.54229,0.788435 3.76701,0.119254 5.9667,-0.433087 7.50005,-1.883261 0.71175,-0.673158 1.07476,-1.23348 1.46131,-2.255691 0.26045,-0.688676 0.26275,-0.752023 0.29846,-8.284338 l 0.0361,-7.59035 h -1.64602 -1.64594 v 0.996416 c 0,0.54803 -0.0215,0.99642 -0.0476,0.99642 -0.0265,0 -0.54109,-0.329697 -1.14402,-0.732659 -1.12384,-0.751182 -2.18437,-1.225878 -3.45732,-1.547544 -0.89669,-0.226594 -2.94399,-0.323955 -3.75109,-0.17838 z m 4.51195,3.231188 c 0.82197,0.208677 2.06238,0.809046 3.06767,1.484768 l 0.76198,0.512149 0.0316,2.765815 0.0316,2.765821 -0.73478,-0.05452 c -2.42258,-0.179767 -4.66985,-0.415516 -5.45666,-0.572432 -1.26024,-0.251332 -2.46425,-0.860331 -3.10088,-1.568396 -0.58756,-0.653497 -0.79327,-1.216239 -0.79327,-2.169753 0,-1.136972 0.20642,-1.696053 0.872,-2.361648 0.49687,-0.496837 0.72105,-0.627567 1.35623,-0.790874 0.41856,-0.107596 0.91927,-0.21731 1.11267,-0.243806 0.56667,-0.0776 2.13293,0.05028 2.8522,0.232879 z m 25.98529,-3.27775 c -2.36886,0.367747 -4.27835,1.803558 -5.3832,4.047866 -1.63677,3.324712 -1.66592,8.421656 -0.0665,11.617304 1.03005,2.057941 2.35293,3.375991 4.26372,4.24816 1.27047,0.579869 1.93493,0.705096 3.64767,0.687459 1.70022,-0.01753 2.72791,-0.231537 4.10077,-0.854 0.43807,-0.198651 0.8156,-0.361172 0.83889,-0.361172 0.0236,0 0.0426,1.89905 0.0426,4.220117 v 4.220117 h 1.69978 1.69976 V 38.048191 24.391421 h -1.69976 -1.69978 v 0.992409 0.992419 L 198.70942,25.7863 c -0.95116,-0.710985 -2.41281,-1.443845 -3.37234,-1.690815 -0.72267,-0.186011 -2.65664,-0.313498 -3.28231,-0.216373 z m 3.60275,3.317736 c 0.97901,0.250386 1.99551,0.725873 3.10838,1.453975 l 0.73268,0.479344 v 5.690477 5.690477 l -0.67404,0.259105 c -1.69757,0.652585 -3.87912,0.908114 -5.32825,0.624131 -2.25789,-0.442476 -3.78263,-2.093611 -4.38907,-4.752873 -0.28509,-1.250266 -0.27994,-4.049929 0.01,-5.387004 0.50604,-2.333876 1.61525,-3.675077 3.4065,-4.118926 0.88186,-0.218522 2.13569,-0.193998 3.13383,0.06129 z m 26.28975,-3.264003 c -3.88213,0.546216 -6.65626,3.389542 -7.38519,7.569392 -0.22834,1.309326 -0.22834,4.045697 0,5.355025 0.8701,4.989647 4.58537,7.965742 9.55388,7.653162 2.26068,-0.14223 3.95745,-0.821272 5.41119,-2.165552 2.11876,-1.959284 3.07298,-4.49464 3.07298,-8.16512 0,-2.793579 -0.49772,-4.737329 -1.67208,-6.530472 -0.65371,-0.998138 -1.82561,-2.132655 -2.74818,-2.660498 -1.69882,-0.971968 -4.02655,-1.366325 -6.2326,-1.055937 z m 3.16312,2.943325 c 1.77754,0.449102 3.147,1.97676 3.77146,4.207106 0.16991,0.606875 0.21107,1.204316 0.21338,3.096476 0.005,2.092699 -0.0256,2.442838 -0.2625,3.259957 -0.32786,1.131229 -0.69468,1.861178 -1.27117,2.529528 -1.52594,1.769095 -4.38075,2.248208 -6.68945,1.122669 -1.40096,-0.683002 -2.29795,-1.918406 -2.80582,-3.864294 -0.30322,-1.161829 -0.30903,-4.791041 -0.01,-5.975266 0.78697,-3.112169 2.94865,-4.783995 5.88337,-4.55019 0.38684,0.03085 0.91351,0.109132 1.1703,0.174014 z m 238.53726,-2.950492 c -2.28362,0.411859 -4.17834,2.053167 -4.85829,4.208513 -0.31348,0.993611 -0.34077,2.787115 -0.059,3.876894 0.64444,2.492409 3.00768,4.143358 6.79322,4.745721 1.27005,0.202096 4.88427,0.527808 5.86718,0.528754 l 0.69097,10e-4 -0.0666,0.849884 c -0.1901,2.427 -1.63236,3.381431 -5.10542,3.378556 -1.93643,-0.0015 -3.54315,-0.286882 -5.63779,-1.001032 -0.47873,-0.163227 -0.91395,-0.296772 -0.96714,-0.296772 -0.0532,0 -0.0967,0.739824 -0.0967,1.644068 v 1.644047 l 0.29365,0.111647 c 0.89438,0.340039 3.61819,0.727516 5.5423,0.788435 3.767,0.119254 5.96669,-0.433088 7.50005,-1.883261 0.71175,-0.673158 1.07475,-1.233481 1.46135,-2.255691 0.26041,-0.688676 0.26271,-0.752023 0.29841,-8.284338 l 0.0361,-7.59035 h -1.64599 -1.64598 v 0.996416 c 0,0.548029 -0.0215,0.99642 -0.0476,0.99642 -0.0265,0 -0.54108,-0.329698 -1.14395,-0.732659 -1.12389,-0.751183 -2.18442,-1.225879 -3.45733,-1.547544 -0.89668,-0.226595 -2.94405,-0.323955 -3.75113,-0.17838 z m 4.51195,3.231188 c 0.82196,0.208677 2.06243,0.809046 3.06773,1.484768 l 0.76197,0.512148 0.0316,2.765816 0.0316,2.765821 -0.73478,-0.05452 c -2.42253,-0.179767 -4.66984,-0.415516 -5.45666,-0.572432 -1.26465,-0.252214 -2.46399,-0.86005 -3.10603,-1.574141 -0.64334,-0.715556 -0.83809,-1.352288 -0.76343,-2.49591 0.11923,-1.826228 1.1361,-2.765861 3.31621,-3.064427 0.56672,-0.0776 2.13294,0.05028 2.8522,0.23288 z M 66.154433,24.099586 c -4.483813,0.720385 -7.514702,3.09603 -9.121518,7.149541 -0.763871,1.926988 -0.951996,3.142966 -0.952107,6.154336 -8e-5,2.244984 0.03646,2.80333 0.245454,3.751215 0.557559,2.52872 1.55796,4.521015 3.071342,6.116654 2.499025,2.634819 5.879453,3.864594 10.156367,3.694792 2.587631,-0.102727 4.399391,-0.525344 6.986337,-1.629656 l 1.395285,-0.595612 V 46.64754 c 0,-1.199583 -0.04618,-2.09332 -0.108101,-2.09332 -0.05946,0 -0.563803,0.343695 -1.120766,0.763772 -1.173884,0.885354 -3.250574,1.93464 -4.515181,2.28137 -1.362769,0.373661 -3.38233,0.540362 -4.652082,0.384021 -4.39752,-0.541439 -7.127595,-3.506471 -7.786541,-8.456638 -0.168244,-1.263832 -0.07475,-4.119222 0.171679,-5.243284 0.456554,-2.082558 1.259065,-3.594147 2.643843,-4.979822 1.701066,-1.702172 3.430816,-2.359175 6.223564,-2.363887 3.125243,-0.0053 5.833371,0.930874 8.209482,2.837842 0.405945,0.325793 0.783397,0.592338 0.838788,0.592338 0.0554,0 0.08633,-0.925576 0.06871,-2.056824 l -0.03199,-2.056829 -1.113642,-0.500211 c -2.880312,-1.293747 -4.663639,-1.71691 -7.502426,-1.780232 -1.427525,-0.03185 -2.372315,0.0057 -3.106477,0.12375 z m 279.592777,-0.05478 c -4.22621,0.661774 -6.98797,3.043354 -7.94659,6.852643 -0.22855,0.908154 -0.26536,1.356931 -0.26446,3.223702 0,2.553218 0.20502,3.585348 1.05308,5.333757 1.17932,2.431236 3.14684,4.05638 5.77609,4.771021 1.31618,0.357736 4.14945,0.357455 5.45301,0 1.96712,-0.540213 3.64902,-1.850347 4.51685,-3.518456 0.79608,-1.530143 0.97786,-2.356511 1.04271,-4.739498 l 0.0566,-2.08075 h -7.28108 -7.28106 v -0.6846 c 0,-0.898744 0.37177,-2.32405 0.83088,-3.185402 0.44168,-0.828632 1.5937,-1.968167 2.39629,-2.370287 1.79046,-0.897043 4.23793,-1.087206 6.48769,-0.504072 1.39466,0.361467 3.19493,1.172822 4.20568,1.895385 l 0.26376,0.188546 v -1.829714 -1.829725 l -0.42465,-0.177422 c -0.79413,-0.331791 -2.91324,-0.992866 -3.79551,-1.184015 -1.03374,-0.22398 -4.07227,-0.319848 -5.08934,-0.160582 z m 6.49516,12.567382 c 0,0.540493 -0.24784,1.758454 -0.48119,2.382166 -0.33592,0.897808 -1.30231,1.917538 -2.19824,2.319623 -2.28262,1.024383 -5.38439,0.499755 -7.03228,-1.189427 -0.9037,-0.926318 -1.6516,-2.511771 -1.65685,-3.512362 v -0.263756 h 5.68541 5.68545 v 0.263756 z m 46.15385,-12.514614 c -4.90605,0.801514 -7.7563,4.094778 -8.01559,9.261609 -0.1936,3.858359 1.04546,7.170767 3.40334,9.097896 0.85903,0.702077 2.51542,1.526993 3.64973,1.817631 1.22052,0.312721 4.01563,0.28864 5.23336,-0.04507 1.76983,-0.485017 3.10703,-1.368653 4.03131,-2.663878 1.10665,-1.550905 1.55374,-3.149824 1.66366,-5.949967 l 0.0679,-1.729074 h -7.34442 -7.34436 v -0.556824 c 0.005,-1.668225 0.85216,-3.705027 1.96653,-4.734013 1.36721,-1.26254 2.81058,-1.757983 5.12354,-1.758709 1.12199,0 1.63802,0.05916 2.54958,0.294083 1.35093,0.348126 3.13028,1.104476 3.92014,1.666291 l 0.56381,0.401054 0.0326,-1.779121 c 0.018,-0.978503 -0.016,-1.827511 -0.0751,-1.886662 -0.16451,-0.164539 -3.01019,-1.098568 -4.00167,-1.313463 -1.24102,-0.268985 -4.12851,-0.33378 -5.42631,-0.121763 z m 6.7137,12.690456 c -0.005,0.669838 -0.30171,1.937185 -0.59096,2.507924 -0.88161,1.73973 -2.29204,2.491133 -4.68212,2.494418 -2.48226,0.0035 -4.34343,-1.0257 -5.37843,-2.973907 -0.3246,-0.611026 -0.7173,-1.859079 -0.7173,-2.279802 0,-0.170233 0.54358,-0.18823 5.68545,-0.18823 h 5.68541 v 0.439597 z m 16.76534,-12.695054 c -1.0611,0.173833 -2.94169,0.737521 -3.9564,1.185878 l -0.61541,0.271928 v 1.823454 c 0,1.21681 0.0416,1.82344 0.1254,1.82344 0.069,0 0.36246,-0.163092 0.65221,-0.362423 0.77889,-0.535921 2.78209,-1.454502 3.85278,-1.766778 0.81566,-0.237886 1.18973,-0.273355 2.87202,-0.272375 1.70488,0.001 2.01561,0.0317 2.62055,0.25899 1.4004,0.526155 1.94404,1.247773 1.9487,2.58685 0.005,1.285846 -0.52116,1.91754 -2.00624,2.41113 -0.29892,0.09936 -1.56616,0.393231 -2.81604,0.653062 -2.50832,0.521418 -3.44251,0.796301 -4.47129,1.315597 -1.66968,0.842878 -2.65554,2.452818 -2.6595,4.343076 -0.008,3.669924 3.16558,6.072189 8.02086,6.072189 1.94074,0 4.43202,-0.489619 6.06439,-1.191845 l 0.56657,-0.243736 v -1.743937 c 0,-0.959178 -0.0435,-1.743952 -0.0973,-1.743952 -0.0534,0 -0.51049,0.235518 -1.01561,0.523377 -1.80614,1.029286 -3.83015,1.60335 -5.69232,1.614497 -1.33757,0.008 -2.15858,-0.16551 -3.0852,-0.65202 -0.88913,-0.466813 -1.27337,-1.02557 -1.34012,-1.948637 -0.0973,-1.345142 0.56412,-2.138079 2.25002,-2.69731 0.39385,-0.130651 1.74473,-0.444756 3.00197,-0.698021 3.06447,-0.617321 3.79739,-0.87639 4.96039,-1.753366 1.14997,-0.867142 1.72146,-2.156447 1.72146,-3.883789 0,-1.259505 -0.21444,-2.001919 -0.85237,-2.950986 -0.88306,-1.31377 -2.41222,-2.314827 -4.29907,-2.814352 -1.17071,-0.309942 -4.30319,-0.397066 -5.75051,-0.159941 z m 23.09342,0.133346 c -2.0419,0.54198 -3.21315,1.721687 -3.83001,3.857713 -0.17867,0.618754 -0.20806,1.454186 -0.24457,6.945611 l -0.0416,6.242257 h -1.10711 -1.10706 v 1.348098 1.348092 h 1.11367 1.11362 v 2.813409 2.813415 h 1.63902 1.63907 l 0.0316,-2.784105 0.0316,-2.784109 3.42883,-0.03105 3.42883,-0.03109 v -1.344552 -1.344556 l -3.42883,-0.03105 -3.42883,-0.0311 -0.032,-4.689019 c -0.039,-5.700923 0.053,-7.183582 0.50133,-8.100095 0.43,-0.878864 0.99574,-1.2758 2.0787,-1.458462 1.03504,-0.174584 2.07294,-0.08694 3.3425,0.282265 l 0.96709,0.281248 v -1.501976 -1.501973 l -0.6154,-0.12297 c -2.0411,-0.407828 -4.32992,-0.481342 -5.48029,-0.175991 z m -328.93478,9.95344 v 9.788331 h 1.69976 1.69978 v -9.788331 -9.788331 h -1.69978 -1.69976 z m 182.05118,3.273978 v 13.078981 l 5.07001,-0.003 c 6.68064,-0.0041 7.82015,-0.121807 9.65438,-0.998292 1.54613,-0.738788 2.43105,-1.797815 2.79601,-3.346176 0.33186,-1.407974 0.17482,-2.955268 -0.41785,-4.117023 -0.34773,-0.68163 -1.31208,-1.665822 -2.18602,-2.231012 -0.40748,-0.263522 -0.69938,-0.516105 -0.64865,-0.561294 0.0508,-0.04522 0.3556,-0.146076 0.67749,-0.224171 1.48495,-0.36033 3.1396,-1.54718 3.97277,-2.849636 0.76108,-1.189778 0.94561,-1.925045 0.94877,-3.78071 0.005,-1.427705 -0.0346,-1.754748 -0.28314,-2.514453 -0.71074,-2.170384 -2.58689,-3.97533 -5.01552,-4.825189 -1.65816,-0.580255 -1.95993,-0.603735 -8.44322,-0.656812 l -6.12503,-0.05016 v 13.07898 z m 12.18087,-9.849474 c 1.81664,0.380867 3.11765,1.293688 3.74187,2.625405 0.28483,0.607616 0.31297,0.794499 0.31262,2.074481 0,1.075663 -0.0525,1.556829 -0.22204,2.044605 -0.26676,0.767813 -1.0414,1.590886 -1.87794,1.995329 -1.19369,0.577125 -1.60527,0.621643 -6.25193,0.676156 l -4.36669,0.05122 v -4.889167 -4.889183 l 3.89776,0.06453 c 2.86122,0.04737 4.12872,0.112944 4.76635,0.24663 z m -0.92222,12.710458 c 1.39179,0.450449 2.21521,1.184189 2.58708,2.305277 0.0856,0.257892 0.15715,0.945071 0.15914,1.527057 0.005,1.336183 -0.29956,2.026737 -1.14301,2.595459 -0.95491,0.643857 -1.80147,0.765233 -5.79903,0.831431 l -3.54607,0.05872 v -3.838809 -3.838794 l 3.48748,0.05572 c 3.14024,0.05017 3.56384,0.08044 4.25441,0.303943 z m 16.64103,-6.134962 v 9.788331 h 1.69978 1.69976 v -9.788331 -9.788331 h -1.69976 -1.69978 z m 39.73943,0 v 9.788331 h 1.69977 1.69982 v -1.049918 -1.049918 l 0.85337,0.610321 c 0.99257,0.709873 2.65343,1.519631 3.65978,1.784369 1.12614,0.296241 2.55329,0.346859 3.69259,0.130941 1.97344,-0.373981 3.36168,-1.392556 4.15996,-3.052222 0.80028,-1.663889 0.80033,-1.66458 0.84956,-9.711557 l 0.0441,-7.238678 h -1.70032 -1.70027 l -0.0381,6.945611 c -0.0371,6.796666 -0.0435,6.962061 -0.29626,7.712477 -0.52195,1.550389 -1.4908,2.214377 -3.37029,2.309909 -0.72847,0.03701 -1.30906,-0.0053 -1.87564,-0.1365 -0.91546,-0.212117 -2.86941,-1.141343 -3.72188,-1.769962 l -0.55681,-0.410617 v -7.325457 -7.325461 h -1.69982 -1.69977 z m 123.20402,0 v 9.788331 h 1.63757 1.63752 l 0.033,-1.404494 0.033,-1.404489 0.99643,0.713634 c 2.49505,1.786963 4.56344,2.354803 7.35589,2.019386 l 0.61544,-0.07393 v -1.696263 -1.696263 l -0.43962,0.07308 c -0.24178,0.04017 -1.17872,0.104975 -2.08216,0.143976 -1.29755,0.05599 -1.79521,0.0318 -2.36925,-0.115283 -0.89338,-0.228867 -2.42403,-0.983776 -3.40269,-1.678175 l -0.73268,-0.519861 v -6.968987 -6.968997 h -1.64113 -1.64118 z M 115.85082,47.402859 c -0.032,0.08384 -0.0435,0.861923 -0.0255,1.729074 l 0.033,1.576624 1.8463,0.0323 1.84635,0.0323 v -1.761359 -1.761364 h -1.82071 c -1.38603,0 -1.83463,0.0364 -1.87915,0.152455 z m 209.95087,0 c -0.032,0.08384 -0.0435,0.861923 -0.0256,1.729074 l 0.033,1.576624 1.84629,0.0323 1.84629,0.0323 v -1.761359 -1.761364 h -1.82065 c -1.38609,0 -1.83468,0.0364 -1.87919,0.152455 z M 117.14752,68.303725 c -0.38686,0.02358 -1.57373,0.09911 -2.63757,0.167829 -20.001368,1.29199 -38.619678,8.815842 -52.600878,21.256539 -12.752086,11.347017 -21.408753,26.544577 -24.815467,43.565817 -2.721102,13.59569 -2.169032,27.79668 1.587922,40.84572 4.558573,15.83336 13.836953,29.80026 26.591964,40.02935 9.352637,7.50051 20.253403,12.81576 32.473229,15.834 12.60888,3.11437 25.96221,3.63488 39.09469,1.52394 15.97556,-2.56796 30.56169,-9.02008 41.14614,-18.20088 1.18508,-1.02789 4.03732,-3.82976 5.11027,-5.01997 l 0.81822,-0.90759 -3.99276,-3.65066 -3.99275,-3.65066 -0.49541,0.38767 c -0.27248,0.21321 -1.3922,1.25275 -2.48823,2.31007 -6.14618,5.929 -11.78792,9.93916 -18.74428,13.32343 -16.32902,7.94409 -34.25328,8.62483 -50.88771,1.93268 -2.18146,-0.87764 -6.147122,-2.8629 -8.264383,-4.1373 -10.129657,-6.09695 -17.925223,-14.25891 -24.378869,-25.52458 -6.703142,-11.7012 -10.452093,-23.23651 -11.562434,-35.577 -0.243204,-2.70288 -0.278705,-8.88676 -0.06596,-11.4881 0.85981,-10.51318 3.690511,-20.64261 8.409667,-30.09323 1.086023,-2.17487 1.209263,-2.40158 2.376161,-4.37107 4.005024,-6.75967 9.598071,-12.979416 15.895519,-17.676606 8.445561,-6.299451 18.604259,-10.374985 29.137049,-11.689305 2.85575,-0.356368 4.743,-0.467976 7.91269,-0.467976 1.61833,0 3.65192,0.05427 4.51905,0.120611 14.85985,1.136807 28.28713,7.05836 39.3953,17.37364 1.50277,1.39552 3.37906,3.33128 6.36926,6.571096 0.76118,0.82471 1.4211,1.4841 1.46652,1.46532 0.0456,-0.0187 2.06913,-2.1369 4.49702,-4.706966 l 4.4143,-4.67283 -0.25609,-0.35971 c -0.45205,-0.634854 -4.32671,-4.441679 -5.71967,-5.61953 -6.24276,-5.278792 -13.2795,-9.412797 -21.39365,-12.568543 -8.51747,-3.312604 -17.43006,-5.309505 -27.2549,-6.106594 -2.13378,-0.173107 -9.9934,-0.320308 -11.66396,-0.218446 z m 88.09497,81.987895 v 78.77569 h 11.13641 11.13646 V 155.03954 81.01178 l 50.96377,-0.02945 50.96382,-0.02945 0.0306,-4.718329 0.0306,-4.718324 H 267.37332 205.24245 Z M 429.84658,71.586438 c -7.99221,0.366715 -14.14754,1.215753 -20.39727,2.813469 -11.81861,3.021415 -22.01857,8.513257 -33.32274,17.941563 -8.91078,7.432064 -14.98479,15.01403 -19.61302,24.48226 -4.12786,8.44463 -6.40998,16.97951 -7.3972,27.66522 -0.32259,3.49177 -0.2937,12.46197 0.0512,15.88406 0.46973,4.66075 0.97856,7.68591 1.97174,11.72255 3.57051,14.51146 11.38304,26.79905 23.43546,36.85936 3.9907,3.33108 7.08161,5.64794 10.96059,8.21577 7.42653,4.91625 14.2501,8.09948 22.23545,10.37303 5.39557,1.53618 10.9727,2.46319 18.38318,3.05552 2.49388,0.19933 11.3942,0.27375 14.47735,0.12104 21.53138,-1.06647 36.6386,-6.99002 54.19415,-21.24951 10.98517,-8.92272 18.29874,-19.39014 22.4616,-32.14776 3.87212,-11.86689 4.89855,-26.40909 2.81363,-39.86528 -2.75795,-17.80031 -11.08902,-32.60209 -25.07672,-44.553616 -7.08252,-6.051506 -12.99057,-10.027687 -19.84323,-13.354653 -9.40989,-4.568503 -19.02882,-6.925179 -31.85322,-7.804158 -1.77474,-0.121648 -11.73428,-0.239003 -13.48092,-0.158865 z m 11.25364,5.791994 c 15.21159,0.92185 26.2868,6.059315 36.26187,16.820782 3.58552,3.86823 5.52526,6.637666 7.69796,10.990876 4.41219,8.84009 6.6544,20.10015 7.26535,36.48545 0.15202,4.07758 0.15198,15.03247 -1.1e-4,19.10776 -0.72361,19.39019 -3.71227,31.53212 -10.1596,41.275 -3.0191,4.56238 -8.5357,10.1865 -13.34987,13.6102 -7.44402,5.2939 -15.54194,8.08096 -26.54335,9.13537 -2.51823,0.24136 -9.82808,0.3419 -12.54311,0.17252 -11.53678,-0.71967 -19.62019,-3.60364 -27.23993,-9.7185 -3.45748,-2.77465 -7.88525,-7.27477 -10.64765,-10.82175 -3.77371,-4.84541 -7.04811,-11.07976 -9.29628,-17.69958 -1.86566,-5.49364 -3.19161,-11.42294 -4.03426,-18.04054 -1.24392,-9.76861 -1.35394,-21.73745 -0.29641,-32.23701 1.63487,-16.23158 6.42601,-29.54215 14.07589,-39.105256 2.5986,-3.24847 6.44508,-7.120047 9.65618,-9.719156 7.94063,-6.427243 16.87394,-9.550174 29.3064,-10.245004 2.4997,-0.1397 7.62985,-0.145514 9.84692,-0.01112 z M 260.10401,176.66752 v 54.15818 h 31.94397 31.94397 v -3.75093 -3.75093 l -24.11917,-0.0296 -24.11916,-0.0296 -0.0295,-20.95406 -0.0295,-20.95405 h 15.82577 15.82574 v -2.63758 -2.63757 h -15.82552 -15.82542 v -22.97621 -22.9762 h 24.14845 24.14846 v -3.80983 -3.80983 h -31.94397 -31.94396 z m 73.81618,7.61854 c -2.1455,0.20738 -4.50158,0.85758 -6.19579,1.70988 -1.1016,0.55416 -2.76217,1.64549 -2.90238,1.90741 -0.0798,0.14933 0.0829,0.64527 0.62291,1.89768 1.44468,3.35047 2.88645,5.76517 5.07206,8.4946 1.21939,1.52277 4.60526,5.00654 6.42836,6.61422 3.58848,3.16446 8.01695,6.33442 12.48258,8.93522 1.02694,0.59809 1.84324,1.11134 1.81405,1.14055 -0.0755,0.0755 -5.2511,-2.49915 -6.92107,-3.44281 -10.01182,-5.65739 -17.79106,-12.79665 -21.55586,-19.7825 -0.30401,-0.56416 -0.59912,-1.02572 -0.65576,-1.02572 -0.29645,0 -1.70632,2.66744 -2.21961,4.19954 -1.43291,4.27687 -0.63729,9.49132 2.18085,14.29371 3.50044,5.96497 7.63497,10.03157 13.06278,12.84808 7.58799,3.93749 18.3074,5.36957 29.47727,3.93812 0.96708,-0.12395 2.0808,-0.28329 2.47486,-0.35411 l 0.71646,-0.12873 -0.84652,-1.2505 c -2.82895,-4.17905 -5.16595,-8.48613 -7.00734,-12.91443 -0.41554,-0.99935 -1.45319,-3.74243 -2.30585,-6.09573 -3.2123,-8.8657 -4.18826,-10.90214 -6.61304,-13.79904 -1.10816,-1.32397 -3.20193,-3.34999 -4.17824,-4.04308 -1.74714,-1.24034 -4.89935,-2.47179 -7.43806,-2.9058 -1.58008,-0.27014 -4.04628,-0.37634 -5.49266,-0.23656 z"
       id="path9394" /></g></svg>
